<mxfile host="app.diagrams.net" agent="Mozilla/5.0 (Windows NT 10.0; Win64; x64) AppleWebKit/537.36 (KHTML, like Gecko) Chrome/132.0.0.0 Safari/537.36 OPR/117.0.0.0" version="26.0.16">
  <diagram name="Page-1" id="56tN8Jho8m08LYoz2s1y">
    <mxGraphModel dx="1161" dy="633" grid="1" gridSize="5" guides="1" tooltips="1" connect="1" arrows="1" fold="1" page="1" pageScale="1" pageWidth="1654" pageHeight="2336" math="0" shadow="0">
      <root>
        <mxCell id="0" />
        <mxCell id="1" parent="0" />
        <mxCell id="LJEUfoLFm-hJULReYEJR-2" value="STM32G474RET6&lt;div&gt;Microcontroller&lt;/div&gt;" style="whiteSpace=wrap;html=1;aspect=fixed;" vertex="1" parent="1">
          <mxGeometry x="340" y="230" width="110" height="110" as="geometry" />
        </mxCell>
        <mxCell id="LJEUfoLFm-hJULReYEJR-3" value="&lt;font style=&quot;color: rgb(255, 0, 0);&quot;&gt;Alimentation&lt;/font&gt;&lt;div&gt;&lt;font style=&quot;color: rgb(255, 0, 0);&quot;&gt;230V -&amp;gt; 12V&lt;/font&gt;&lt;/div&gt;" style="rounded=0;whiteSpace=wrap;html=1;strokeColor=#FF0000;" vertex="1" parent="1">
          <mxGeometry x="480" y="55" width="90" height="60" as="geometry" />
        </mxCell>
        <mxCell id="LJEUfoLFm-hJULReYEJR-4" value="&lt;font style=&quot;color: rgb(255, 0, 0);&quot;&gt;Buck&lt;/font&gt;&lt;div&gt;&lt;font style=&quot;color: rgb(255, 0, 0);&quot;&gt;12V -&amp;gt; 5V&lt;/font&gt;&lt;/div&gt;" style="rounded=0;whiteSpace=wrap;html=1;strokeColor=#FF0000;" vertex="1" parent="1">
          <mxGeometry x="350" y="60" width="90" height="50" as="geometry" />
        </mxCell>
        <mxCell id="LJEUfoLFm-hJULReYEJR-5" value="&lt;font style=&quot;color: rgb(255, 0, 0);&quot;&gt;LDO&lt;/font&gt;&lt;div&gt;&lt;font style=&quot;color: rgb(255, 0, 0);&quot;&gt;5V -&amp;gt; 3.3V&lt;/font&gt;&lt;/div&gt;" style="rounded=0;whiteSpace=wrap;html=1;strokeColor=#FF0000;" vertex="1" parent="1">
          <mxGeometry x="350" y="150" width="90" height="50" as="geometry" />
        </mxCell>
        <mxCell id="LJEUfoLFm-hJULReYEJR-7" value="Servo motor&lt;div&gt;FS90&lt;/div&gt;" style="rounded=1;whiteSpace=wrap;html=1;" vertex="1" parent="1">
          <mxGeometry x="170" y="205" width="80" height="40" as="geometry" />
        </mxCell>
        <mxCell id="LJEUfoLFm-hJULReYEJR-8" value="Servo motor&lt;div&gt;FS90&lt;/div&gt;" style="rounded=1;whiteSpace=wrap;html=1;" vertex="1" parent="1">
          <mxGeometry x="170" y="265" width="80" height="40" as="geometry" />
        </mxCell>
        <mxCell id="LJEUfoLFm-hJULReYEJR-9" value="Servo motor&lt;div&gt;FS90&lt;/div&gt;" style="rounded=1;whiteSpace=wrap;html=1;" vertex="1" parent="1">
          <mxGeometry x="170" y="325" width="80" height="40" as="geometry" />
        </mxCell>
        <mxCell id="LJEUfoLFm-hJULReYEJR-10" value="Servo motor&lt;div&gt;FS90 360&lt;/div&gt;" style="rounded=1;whiteSpace=wrap;html=1;" vertex="1" parent="1">
          <mxGeometry x="170" y="385" width="80" height="40" as="geometry" />
        </mxCell>
        <mxCell id="LJEUfoLFm-hJULReYEJR-11" value="Servo motor&lt;div&gt;FS90&lt;/div&gt;" style="rounded=1;whiteSpace=wrap;html=1;" vertex="1" parent="1">
          <mxGeometry x="170" y="145" width="80" height="40" as="geometry" />
        </mxCell>
        <mxCell id="LJEUfoLFm-hJULReYEJR-13" value="LCD TFT screen" style="rounded=1;whiteSpace=wrap;html=1;" vertex="1" parent="1">
          <mxGeometry x="310" y="400" width="80" height="40" as="geometry" />
        </mxCell>
        <mxCell id="LJEUfoLFm-hJULReYEJR-14" value="Neopixel LEDs" style="rounded=1;whiteSpace=wrap;html=1;" vertex="1" parent="1">
          <mxGeometry x="513" y="160" width="90" height="40" as="geometry" />
        </mxCell>
        <mxCell id="LJEUfoLFm-hJULReYEJR-15" value="MP3 Module" style="rounded=1;whiteSpace=wrap;html=1;" vertex="1" parent="1">
          <mxGeometry x="420" y="400" width="80" height="40" as="geometry" />
        </mxCell>
        <mxCell id="LJEUfoLFm-hJULReYEJR-16" value="&lt;font style=&quot;color: rgb(51, 153, 255);&quot;&gt;Enceinte&lt;/font&gt;" style="rounded=1;whiteSpace=wrap;html=1;strokeColor=#3399FF;" vertex="1" parent="1">
          <mxGeometry x="420" y="465" width="80" height="40" as="geometry" />
        </mxCell>
        <mxCell id="LJEUfoLFm-hJULReYEJR-17" value="HC05 (Bluetooth)" style="rounded=1;whiteSpace=wrap;html=1;" vertex="1" parent="1">
          <mxGeometry x="528" y="265" width="80" height="40" as="geometry" />
        </mxCell>
        <mxCell id="LJEUfoLFm-hJULReYEJR-18" value="" style="endArrow=classic;html=1;rounded=0;entryX=0.5;entryY=0;entryDx=0;entryDy=0;exitX=0.5;exitY=1;exitDx=0;exitDy=0;strokeColor=#FF0000;" edge="1" parent="1" source="LJEUfoLFm-hJULReYEJR-5" target="LJEUfoLFm-hJULReYEJR-2">
          <mxGeometry width="50" height="50" relative="1" as="geometry">
            <mxPoint x="310" y="290" as="sourcePoint" />
            <mxPoint x="360" y="240" as="targetPoint" />
          </mxGeometry>
        </mxCell>
        <mxCell id="LJEUfoLFm-hJULReYEJR-19" value="" style="endArrow=classic;html=1;rounded=0;entryX=0.5;entryY=0;entryDx=0;entryDy=0;exitX=0.5;exitY=1;exitDx=0;exitDy=0;strokeColor=#FF0000;" edge="1" parent="1" source="LJEUfoLFm-hJULReYEJR-4" target="LJEUfoLFm-hJULReYEJR-5">
          <mxGeometry width="50" height="50" relative="1" as="geometry">
            <mxPoint x="340" y="190" as="sourcePoint" />
            <mxPoint x="390" y="140" as="targetPoint" />
          </mxGeometry>
        </mxCell>
        <mxCell id="LJEUfoLFm-hJULReYEJR-20" value="" style="endArrow=classic;html=1;rounded=0;entryX=1;entryY=0.5;entryDx=0;entryDy=0;exitX=0;exitY=0.5;exitDx=0;exitDy=0;strokeColor=#FF0000;" edge="1" parent="1" source="LJEUfoLFm-hJULReYEJR-3" target="LJEUfoLFm-hJULReYEJR-4">
          <mxGeometry width="50" height="50" relative="1" as="geometry">
            <mxPoint x="340" y="190" as="sourcePoint" />
            <mxPoint x="390" y="140" as="targetPoint" />
          </mxGeometry>
        </mxCell>
        <mxCell id="LJEUfoLFm-hJULReYEJR-21" value="" style="endArrow=classic;html=1;rounded=0;entryX=1;entryY=0.5;entryDx=0;entryDy=0;exitX=-0.003;exitY=0.161;exitDx=0;exitDy=0;exitPerimeter=0;" edge="1" parent="1" source="LJEUfoLFm-hJULReYEJR-2" target="LJEUfoLFm-hJULReYEJR-11">
          <mxGeometry width="50" height="50" relative="1" as="geometry">
            <mxPoint x="180" y="270" as="sourcePoint" />
            <mxPoint x="230" y="220" as="targetPoint" />
          </mxGeometry>
        </mxCell>
        <mxCell id="LJEUfoLFm-hJULReYEJR-22" value="" style="endArrow=classic;html=1;rounded=0;entryX=1;entryY=0.5;entryDx=0;entryDy=0;exitX=0.006;exitY=0.212;exitDx=0;exitDy=0;exitPerimeter=0;" edge="1" parent="1" source="LJEUfoLFm-hJULReYEJR-2" target="LJEUfoLFm-hJULReYEJR-7">
          <mxGeometry width="50" height="50" relative="1" as="geometry">
            <mxPoint x="180" y="270" as="sourcePoint" />
            <mxPoint x="230" y="220" as="targetPoint" />
          </mxGeometry>
        </mxCell>
        <mxCell id="LJEUfoLFm-hJULReYEJR-23" value="" style="endArrow=classic;html=1;rounded=0;entryX=1;entryY=0.5;entryDx=0;entryDy=0;exitX=0;exitY=0.5;exitDx=0;exitDy=0;" edge="1" parent="1" source="LJEUfoLFm-hJULReYEJR-2" target="LJEUfoLFm-hJULReYEJR-8">
          <mxGeometry width="50" height="50" relative="1" as="geometry">
            <mxPoint x="260" y="320" as="sourcePoint" />
            <mxPoint x="310" y="270" as="targetPoint" />
          </mxGeometry>
        </mxCell>
        <mxCell id="LJEUfoLFm-hJULReYEJR-24" value="" style="endArrow=classic;html=1;rounded=0;entryX=1;entryY=0.5;entryDx=0;entryDy=0;exitX=0;exitY=0.678;exitDx=0;exitDy=0;exitPerimeter=0;" edge="1" parent="1" source="LJEUfoLFm-hJULReYEJR-2" target="LJEUfoLFm-hJULReYEJR-9">
          <mxGeometry width="50" height="50" relative="1" as="geometry">
            <mxPoint x="260" y="320" as="sourcePoint" />
            <mxPoint x="310" y="270" as="targetPoint" />
          </mxGeometry>
        </mxCell>
        <mxCell id="LJEUfoLFm-hJULReYEJR-25" value="" style="endArrow=classic;html=1;rounded=0;entryX=1;entryY=0.5;entryDx=0;entryDy=0;exitX=-0.003;exitY=0.821;exitDx=0;exitDy=0;exitPerimeter=0;" edge="1" parent="1" source="LJEUfoLFm-hJULReYEJR-2" target="LJEUfoLFm-hJULReYEJR-10">
          <mxGeometry width="50" height="50" relative="1" as="geometry">
            <mxPoint x="260" y="380" as="sourcePoint" />
            <mxPoint x="310" y="330" as="targetPoint" />
          </mxGeometry>
        </mxCell>
        <mxCell id="LJEUfoLFm-hJULReYEJR-27" value="" style="endArrow=none;html=1;rounded=0;entryX=0;entryY=0.5;entryDx=0;entryDy=0;strokeColor=#FF0000;" edge="1" parent="1" target="LJEUfoLFm-hJULReYEJR-4">
          <mxGeometry width="50" height="50" relative="1" as="geometry">
            <mxPoint x="210" y="85" as="sourcePoint" />
            <mxPoint x="300" y="230" as="targetPoint" />
          </mxGeometry>
        </mxCell>
        <mxCell id="LJEUfoLFm-hJULReYEJR-29" value="" style="endArrow=classic;html=1;rounded=0;entryX=0.5;entryY=0;entryDx=0;entryDy=0;strokeColor=#FF0000;" edge="1" parent="1" target="LJEUfoLFm-hJULReYEJR-11">
          <mxGeometry width="50" height="50" relative="1" as="geometry">
            <mxPoint x="210" y="85" as="sourcePoint" />
            <mxPoint x="262" y="69" as="targetPoint" />
          </mxGeometry>
        </mxCell>
        <mxCell id="LJEUfoLFm-hJULReYEJR-30" value="" style="endArrow=classic;html=1;rounded=0;entryX=0.5;entryY=0;entryDx=0;entryDy=0;exitX=0.5;exitY=1;exitDx=0;exitDy=0;strokeColor=#FF0000;" edge="1" parent="1" source="LJEUfoLFm-hJULReYEJR-11" target="LJEUfoLFm-hJULReYEJR-7">
          <mxGeometry width="50" height="50" relative="1" as="geometry">
            <mxPoint x="156" y="216" as="sourcePoint" />
            <mxPoint x="206" y="166" as="targetPoint" />
          </mxGeometry>
        </mxCell>
        <mxCell id="LJEUfoLFm-hJULReYEJR-31" value="" style="endArrow=classic;html=1;rounded=0;entryX=0.5;entryY=0;entryDx=0;entryDy=0;exitX=0.5;exitY=1;exitDx=0;exitDy=0;strokeColor=#FF0000;" edge="1" parent="1">
          <mxGeometry width="50" height="50" relative="1" as="geometry">
            <mxPoint x="209.83" y="245" as="sourcePoint" />
            <mxPoint x="209.83" y="265" as="targetPoint" />
          </mxGeometry>
        </mxCell>
        <mxCell id="LJEUfoLFm-hJULReYEJR-32" value="" style="endArrow=classic;html=1;rounded=0;entryX=0.5;entryY=0;entryDx=0;entryDy=0;exitX=0.5;exitY=1;exitDx=0;exitDy=0;strokeColor=#FF0000;" edge="1" parent="1">
          <mxGeometry width="50" height="50" relative="1" as="geometry">
            <mxPoint x="209.83" y="305" as="sourcePoint" />
            <mxPoint x="209.83" y="325" as="targetPoint" />
          </mxGeometry>
        </mxCell>
        <mxCell id="LJEUfoLFm-hJULReYEJR-33" value="" style="endArrow=classic;html=1;rounded=0;entryX=0.5;entryY=0;entryDx=0;entryDy=0;exitX=0.5;exitY=1;exitDx=0;exitDy=0;strokeColor=#FF0000;" edge="1" parent="1">
          <mxGeometry width="50" height="50" relative="1" as="geometry">
            <mxPoint x="209.83" y="365" as="sourcePoint" />
            <mxPoint x="209.83" y="385" as="targetPoint" />
          </mxGeometry>
        </mxCell>
        <mxCell id="LJEUfoLFm-hJULReYEJR-34" value="PWM x5" style="text;html=1;align=center;verticalAlign=middle;whiteSpace=wrap;rounded=0;" vertex="1" parent="1">
          <mxGeometry x="273" y="256" width="60" height="30" as="geometry" />
        </mxCell>
        <mxCell id="LJEUfoLFm-hJULReYEJR-35" value="" style="endArrow=classic;html=1;rounded=0;entryX=0.019;entryY=0.025;entryDx=0;entryDy=0;exitX=1;exitY=1;exitDx=0;exitDy=0;entryPerimeter=0;strokeColor=#FF0000;" edge="1" parent="1" source="LJEUfoLFm-hJULReYEJR-4" target="LJEUfoLFm-hJULReYEJR-14">
          <mxGeometry width="50" height="50" relative="1" as="geometry">
            <mxPoint x="314" y="343" as="sourcePoint" />
            <mxPoint x="364" y="293" as="targetPoint" />
          </mxGeometry>
        </mxCell>
        <mxCell id="LJEUfoLFm-hJULReYEJR-36" value="" style="endArrow=classic;html=1;rounded=0;entryX=0.016;entryY=0.953;entryDx=0;entryDy=0;entryPerimeter=0;exitX=1;exitY=0.098;exitDx=0;exitDy=0;exitPerimeter=0;" edge="1" parent="1" source="LJEUfoLFm-hJULReYEJR-2" target="LJEUfoLFm-hJULReYEJR-14">
          <mxGeometry width="50" height="50" relative="1" as="geometry">
            <mxPoint x="331" y="291" as="sourcePoint" />
            <mxPoint x="480" y="212" as="targetPoint" />
          </mxGeometry>
        </mxCell>
        <mxCell id="LJEUfoLFm-hJULReYEJR-37" value="&lt;font style=&quot;font-size: 10px;&quot;&gt;PWM + DMA&lt;/font&gt;" style="text;html=1;align=center;verticalAlign=middle;whiteSpace=wrap;rounded=0;" vertex="1" parent="1">
          <mxGeometry x="464" y="210" width="99" height="30" as="geometry" />
        </mxCell>
        <mxCell id="LJEUfoLFm-hJULReYEJR-38" value="" style="endArrow=classic;html=1;rounded=0;entryX=0.638;entryY=0.016;entryDx=0;entryDy=0;exitX=0.195;exitY=0.996;exitDx=0;exitDy=0;exitPerimeter=0;entryPerimeter=0;" edge="1" parent="1" source="LJEUfoLFm-hJULReYEJR-2" target="LJEUfoLFm-hJULReYEJR-13">
          <mxGeometry width="50" height="50" relative="1" as="geometry">
            <mxPoint x="255" y="285" as="sourcePoint" />
            <mxPoint x="305" y="235" as="targetPoint" />
          </mxGeometry>
        </mxCell>
        <mxCell id="LJEUfoLFm-hJULReYEJR-39" value="SPI" style="text;html=1;align=center;verticalAlign=middle;whiteSpace=wrap;rounded=0;" vertex="1" parent="1">
          <mxGeometry x="345" y="355" width="60" height="30" as="geometry" />
        </mxCell>
        <mxCell id="LJEUfoLFm-hJULReYEJR-40" value="" style="endArrow=classic;html=1;rounded=0;entryX=0.5;entryY=0;entryDx=0;entryDy=0;exitX=0.972;exitY=0.999;exitDx=0;exitDy=0;exitPerimeter=0;" edge="1" parent="1" source="LJEUfoLFm-hJULReYEJR-2" target="LJEUfoLFm-hJULReYEJR-15">
          <mxGeometry width="50" height="50" relative="1" as="geometry">
            <mxPoint x="225" y="350" as="sourcePoint" />
            <mxPoint x="425" y="375" as="targetPoint" />
          </mxGeometry>
        </mxCell>
        <mxCell id="LJEUfoLFm-hJULReYEJR-41" value="" style="endArrow=classic;html=1;rounded=0;entryX=0.5;entryY=0;entryDx=0;entryDy=0;exitX=0.5;exitY=1;exitDx=0;exitDy=0;strokeColor=#3399FF;" edge="1" parent="1" source="LJEUfoLFm-hJULReYEJR-15" target="LJEUfoLFm-hJULReYEJR-16">
          <mxGeometry width="50" height="50" relative="1" as="geometry">
            <mxPoint x="330" y="355" as="sourcePoint" />
            <mxPoint x="380" y="305" as="targetPoint" />
          </mxGeometry>
        </mxCell>
        <mxCell id="LJEUfoLFm-hJULReYEJR-42" value="UART" style="text;html=1;align=center;verticalAlign=middle;whiteSpace=wrap;rounded=0;" vertex="1" parent="1">
          <mxGeometry x="445" y="355" width="60" height="30" as="geometry" />
        </mxCell>
        <mxCell id="LJEUfoLFm-hJULReYEJR-43" value="" style="endArrow=classic;html=1;rounded=0;entryX=0.421;entryY=0.012;entryDx=0;entryDy=0;entryPerimeter=0;exitX=0.033;exitY=1.003;exitDx=0;exitDy=0;exitPerimeter=0;strokeColor=#FF0000;" edge="1" parent="1">
          <mxGeometry width="50" height="50" relative="1" as="geometry">
            <mxPoint x="345" y="340.00000000000006" as="sourcePoint" />
            <mxPoint x="345.04999999999995" y="400.15000000000003" as="targetPoint" />
          </mxGeometry>
        </mxCell>
        <mxCell id="LJEUfoLFm-hJULReYEJR-44" value="" style="endArrow=classic;html=1;rounded=0;entryX=0.199;entryY=0.018;entryDx=0;entryDy=0;entryPerimeter=0;exitX=0.872;exitY=1.004;exitDx=0;exitDy=0;exitPerimeter=0;strokeColor=#FF0000;" edge="1" parent="1" source="LJEUfoLFm-hJULReYEJR-2" target="LJEUfoLFm-hJULReYEJR-15">
          <mxGeometry width="50" height="50" relative="1" as="geometry">
            <mxPoint x="375" y="445" as="sourcePoint" />
            <mxPoint x="425" y="395" as="targetPoint" />
          </mxGeometry>
        </mxCell>
        <mxCell id="LJEUfoLFm-hJULReYEJR-45" value="" style="endArrow=classic;html=1;rounded=0;entryX=0;entryY=0.25;entryDx=0;entryDy=0;exitX=1.008;exitY=0.408;exitDx=0;exitDy=0;exitPerimeter=0;" edge="1" parent="1" source="LJEUfoLFm-hJULReYEJR-2" target="LJEUfoLFm-hJULReYEJR-17">
          <mxGeometry width="50" height="50" relative="1" as="geometry">
            <mxPoint x="355" y="350" as="sourcePoint" />
            <mxPoint x="405" y="300" as="targetPoint" />
          </mxGeometry>
        </mxCell>
        <mxCell id="LJEUfoLFm-hJULReYEJR-46" value="" style="endArrow=classic;html=1;rounded=0;entryX=0;entryY=0.625;entryDx=0;entryDy=0;exitX=1.008;exitY=0.408;exitDx=0;exitDy=0;exitPerimeter=0;strokeColor=#FF0000;entryPerimeter=0;" edge="1" parent="1" target="LJEUfoLFm-hJULReYEJR-17">
          <mxGeometry width="50" height="50" relative="1" as="geometry">
            <mxPoint x="451" y="290" as="sourcePoint" />
            <mxPoint x="505" y="290" as="targetPoint" />
          </mxGeometry>
        </mxCell>
        <mxCell id="LJEUfoLFm-hJULReYEJR-47" value="UART" style="text;html=1;align=center;verticalAlign=middle;whiteSpace=wrap;rounded=0;" vertex="1" parent="1">
          <mxGeometry x="445" y="250" width="60" height="30" as="geometry" />
        </mxCell>
        <mxCell id="LJEUfoLFm-hJULReYEJR-48" value="&lt;font style=&quot;color: rgb(51, 153, 255);&quot;&gt;Food&lt;/font&gt;&lt;div&gt;&lt;font style=&quot;color: rgb(51, 153, 255);&quot;&gt;dispenser&lt;/font&gt;&lt;/div&gt;" style="rounded=1;whiteSpace=wrap;html=1;strokeColor=#3399FF;" vertex="1" parent="1">
          <mxGeometry x="65" y="145" width="80" height="40" as="geometry" />
        </mxCell>
        <mxCell id="LJEUfoLFm-hJULReYEJR-49" value="&lt;font style=&quot;color: rgb(51, 153, 255);&quot;&gt;Door&lt;/font&gt;" style="rounded=1;whiteSpace=wrap;html=1;strokeColor=#3399FF;" vertex="1" parent="1">
          <mxGeometry x="65" y="205" width="80" height="40" as="geometry" />
        </mxCell>
        <mxCell id="LJEUfoLFm-hJULReYEJR-50" value="&lt;font style=&quot;color: rgb(51, 153, 255);&quot;&gt;Door&lt;/font&gt;" style="rounded=1;whiteSpace=wrap;html=1;strokeColor=#3399FF;" vertex="1" parent="1">
          <mxGeometry x="65" y="265" width="80" height="40" as="geometry" />
        </mxCell>
        <mxCell id="LJEUfoLFm-hJULReYEJR-51" value="&lt;font style=&quot;color: rgb(51, 153, 255);&quot;&gt;Door&lt;/font&gt;" style="rounded=1;whiteSpace=wrap;html=1;strokeColor=#3399FF;" vertex="1" parent="1">
          <mxGeometry x="65" y="325" width="80" height="40" as="geometry" />
        </mxCell>
        <mxCell id="LJEUfoLFm-hJULReYEJR-52" value="&lt;font style=&quot;color: rgb(51, 153, 255);&quot;&gt;Garage&lt;/font&gt;&lt;div&gt;&lt;font style=&quot;color: rgb(51, 153, 255);&quot;&gt;door&lt;/font&gt;&lt;/div&gt;" style="rounded=1;whiteSpace=wrap;html=1;strokeColor=#3399FF;" vertex="1" parent="1">
          <mxGeometry x="65" y="385" width="80" height="40" as="geometry" />
        </mxCell>
        <mxCell id="LJEUfoLFm-hJULReYEJR-53" value="" style="endArrow=classic;html=1;rounded=0;entryX=1;entryY=0.5;entryDx=0;entryDy=0;exitX=0;exitY=0.5;exitDx=0;exitDy=0;strokeColor=#007FFF;" edge="1" parent="1" source="LJEUfoLFm-hJULReYEJR-7" target="LJEUfoLFm-hJULReYEJR-49">
          <mxGeometry width="50" height="50" relative="1" as="geometry">
            <mxPoint x="215" y="350" as="sourcePoint" />
            <mxPoint x="265" y="300" as="targetPoint" />
          </mxGeometry>
        </mxCell>
        <mxCell id="LJEUfoLFm-hJULReYEJR-54" value="" style="endArrow=classic;html=1;rounded=0;entryX=1;entryY=0.5;entryDx=0;entryDy=0;exitX=0;exitY=0.5;exitDx=0;exitDy=0;strokeColor=#007FFF;" edge="1" parent="1">
          <mxGeometry width="50" height="50" relative="1" as="geometry">
            <mxPoint x="170" y="284.84000000000003" as="sourcePoint" />
            <mxPoint x="145" y="284.84000000000003" as="targetPoint" />
          </mxGeometry>
        </mxCell>
        <mxCell id="LJEUfoLFm-hJULReYEJR-55" value="" style="endArrow=classic;html=1;rounded=0;entryX=1;entryY=0.5;entryDx=0;entryDy=0;exitX=0;exitY=0.5;exitDx=0;exitDy=0;strokeColor=#007FFF;" edge="1" parent="1">
          <mxGeometry width="50" height="50" relative="1" as="geometry">
            <mxPoint x="170" y="344.84000000000003" as="sourcePoint" />
            <mxPoint x="145" y="344.84000000000003" as="targetPoint" />
          </mxGeometry>
        </mxCell>
        <mxCell id="LJEUfoLFm-hJULReYEJR-56" value="" style="endArrow=classic;html=1;rounded=0;entryX=1;entryY=0.5;entryDx=0;entryDy=0;exitX=0;exitY=0.5;exitDx=0;exitDy=0;strokeColor=#3399FF;" edge="1" parent="1">
          <mxGeometry width="50" height="50" relative="1" as="geometry">
            <mxPoint x="170" y="404.84000000000003" as="sourcePoint" />
            <mxPoint x="145" y="404.84000000000003" as="targetPoint" />
          </mxGeometry>
        </mxCell>
        <mxCell id="LJEUfoLFm-hJULReYEJR-58" value="" style="endArrow=classic;html=1;rounded=0;entryX=1;entryY=0.5;entryDx=0;entryDy=0;exitX=0;exitY=0.5;exitDx=0;exitDy=0;strokeColor=#007FFF;" edge="1" parent="1">
          <mxGeometry width="50" height="50" relative="1" as="geometry">
            <mxPoint x="170" y="164.82999999999998" as="sourcePoint" />
            <mxPoint x="145" y="164.82999999999998" as="targetPoint" />
          </mxGeometry>
        </mxCell>
        <mxCell id="LJEUfoLFm-hJULReYEJR-59" value="" style="rounded=0;whiteSpace=wrap;html=1;fillColor=none;strokeColor=#7F00FF;dashed=1;dashPattern=8 8;strokeWidth=2;" vertex="1" parent="1">
          <mxGeometry x="160" y="45" width="465" height="405" as="geometry" />
        </mxCell>
        <mxCell id="LJEUfoLFm-hJULReYEJR-60" value="&lt;font style=&quot;color: rgb(127, 0, 255);&quot;&gt;PCB MAIN UNIT&lt;/font&gt;" style="text;html=1;align=center;verticalAlign=middle;whiteSpace=wrap;rounded=0;" vertex="1" parent="1">
          <mxGeometry x="520" y="425" width="110" height="30" as="geometry" />
        </mxCell>
        <mxCell id="LJEUfoLFm-hJULReYEJR-61" value="" style="endArrow=classic;startArrow=classic;html=1;rounded=0;strokeColor=#007FFF;dashed=1;exitX=1;exitY=0.5;exitDx=0;exitDy=0;entryX=0;entryY=0.5;entryDx=0;entryDy=0;" edge="1" parent="1" source="LJEUfoLFm-hJULReYEJR-17" target="LJEUfoLFm-hJULReYEJR-64">
          <mxGeometry width="50" height="50" relative="1" as="geometry">
            <mxPoint x="665" y="305" as="sourcePoint" />
            <mxPoint x="715" y="285" as="targetPoint" />
          </mxGeometry>
        </mxCell>
        <mxCell id="LJEUfoLFm-hJULReYEJR-62" value="&lt;font style=&quot;color: rgb(0, 127, 255);&quot;&gt;Bluetooth&lt;/font&gt;" style="text;html=1;align=center;verticalAlign=middle;whiteSpace=wrap;rounded=0;" vertex="1" parent="1">
          <mxGeometry x="620" y="260" width="60" height="30" as="geometry" />
        </mxCell>
        <mxCell id="LJEUfoLFm-hJULReYEJR-63" value="STM32G431KBT6&lt;div&gt;Microcontroller&lt;/div&gt;" style="whiteSpace=wrap;html=1;aspect=fixed;" vertex="1" parent="1">
          <mxGeometry x="835" y="230" width="110" height="110" as="geometry" />
        </mxCell>
        <mxCell id="LJEUfoLFm-hJULReYEJR-64" value="HC05 (Bluetooth)" style="rounded=1;whiteSpace=wrap;html=1;" vertex="1" parent="1">
          <mxGeometry x="695" y="265" width="80" height="40" as="geometry" />
        </mxCell>
        <mxCell id="LJEUfoLFm-hJULReYEJR-65" value="&lt;font style=&quot;color: rgb(255, 0, 0);&quot;&gt;LiPo 1S1P&lt;/font&gt;&lt;div&gt;&lt;font color=&quot;#ff0000&quot;&gt;3.8V&lt;/font&gt;&lt;/div&gt;" style="rounded=0;whiteSpace=wrap;html=1;strokeColor=#FF0000;" vertex="1" parent="1">
          <mxGeometry x="980" y="70" width="90" height="50" as="geometry" />
        </mxCell>
        <mxCell id="LJEUfoLFm-hJULReYEJR-66" value="&lt;font color=&quot;#ff0000&quot;&gt;Boost&lt;/font&gt;&lt;div&gt;&lt;font color=&quot;#ff0000&quot;&gt;-&amp;gt; 5V&lt;/font&gt;&lt;/div&gt;" style="rounded=0;whiteSpace=wrap;html=1;strokeColor=#FF0000;" vertex="1" parent="1">
          <mxGeometry x="845" y="70" width="90" height="50" as="geometry" />
        </mxCell>
        <mxCell id="LJEUfoLFm-hJULReYEJR-67" value="&lt;font style=&quot;color: rgb(255, 0, 0);&quot;&gt;LDO&lt;/font&gt;&lt;div&gt;&lt;font style=&quot;color: rgb(255, 0, 0);&quot;&gt;5V -&amp;gt; 3.3V&lt;/font&gt;&lt;/div&gt;" style="rounded=0;whiteSpace=wrap;html=1;strokeColor=#FF0000;" vertex="1" parent="1">
          <mxGeometry x="845" y="150" width="90" height="50" as="geometry" />
        </mxCell>
        <mxCell id="LJEUfoLFm-hJULReYEJR-68" value="" style="endArrow=classic;html=1;rounded=0;entryX=1;entryY=0.5;entryDx=0;entryDy=0;exitX=0;exitY=0.5;exitDx=0;exitDy=0;strokeColor=#FF0000;" edge="1" parent="1" source="LJEUfoLFm-hJULReYEJR-65" target="LJEUfoLFm-hJULReYEJR-66">
          <mxGeometry width="50" height="50" relative="1" as="geometry">
            <mxPoint x="785" y="250" as="sourcePoint" />
            <mxPoint x="835" y="200" as="targetPoint" />
          </mxGeometry>
        </mxCell>
        <mxCell id="LJEUfoLFm-hJULReYEJR-69" value="" style="endArrow=classic;html=1;rounded=0;entryX=0.5;entryY=0;entryDx=0;entryDy=0;exitX=0.5;exitY=1;exitDx=0;exitDy=0;strokeColor=#FF0000;" edge="1" parent="1" source="LJEUfoLFm-hJULReYEJR-66" target="LJEUfoLFm-hJULReYEJR-67">
          <mxGeometry width="50" height="50" relative="1" as="geometry">
            <mxPoint x="785" y="250" as="sourcePoint" />
            <mxPoint x="835" y="200" as="targetPoint" />
          </mxGeometry>
        </mxCell>
        <mxCell id="LJEUfoLFm-hJULReYEJR-70" value="" style="endArrow=classic;html=1;rounded=0;entryX=0.5;entryY=0;entryDx=0;entryDy=0;exitX=0.5;exitY=1;exitDx=0;exitDy=0;strokeColor=#FF0000;" edge="1" parent="1" source="LJEUfoLFm-hJULReYEJR-67" target="LJEUfoLFm-hJULReYEJR-63">
          <mxGeometry width="50" height="50" relative="1" as="geometry">
            <mxPoint x="785" y="250" as="sourcePoint" />
            <mxPoint x="835" y="200" as="targetPoint" />
          </mxGeometry>
        </mxCell>
        <mxCell id="LJEUfoLFm-hJULReYEJR-71" value="" style="endArrow=classic;html=1;rounded=0;entryX=1;entryY=0.25;entryDx=0;entryDy=0;exitX=-0.001;exitY=0.41;exitDx=0;exitDy=0;exitPerimeter=0;" edge="1" parent="1" source="LJEUfoLFm-hJULReYEJR-63" target="LJEUfoLFm-hJULReYEJR-64">
          <mxGeometry width="50" height="50" relative="1" as="geometry">
            <mxPoint x="700" y="310" as="sourcePoint" />
            <mxPoint x="785" y="275" as="targetPoint" />
          </mxGeometry>
        </mxCell>
        <mxCell id="LJEUfoLFm-hJULReYEJR-72" value="" style="endArrow=classic;html=1;rounded=0;entryX=1;entryY=0.25;entryDx=0;entryDy=0;exitX=-0.001;exitY=0.41;exitDx=0;exitDy=0;exitPerimeter=0;strokeColor=#FF0000;" edge="1" parent="1">
          <mxGeometry width="50" height="50" relative="1" as="geometry">
            <mxPoint x="835" y="295" as="sourcePoint" />
            <mxPoint x="775" y="295" as="targetPoint" />
          </mxGeometry>
        </mxCell>
        <mxCell id="LJEUfoLFm-hJULReYEJR-74" value="Switches&lt;div&gt;x11&lt;/div&gt;" style="rounded=1;whiteSpace=wrap;html=1;" vertex="1" parent="1">
          <mxGeometry x="1005" y="265" width="80" height="40" as="geometry" />
        </mxCell>
        <mxCell id="LJEUfoLFm-hJULReYEJR-75" value="" style="endArrow=classic;html=1;rounded=0;entryX=1;entryY=0.5;entryDx=0;entryDy=0;exitX=0;exitY=0.5;exitDx=0;exitDy=0;" edge="1" parent="1" source="LJEUfoLFm-hJULReYEJR-74" target="LJEUfoLFm-hJULReYEJR-63">
          <mxGeometry width="50" height="50" relative="1" as="geometry">
            <mxPoint x="770" y="315" as="sourcePoint" />
            <mxPoint x="820" y="265" as="targetPoint" />
          </mxGeometry>
        </mxCell>
        <mxCell id="LJEUfoLFm-hJULReYEJR-76" value="GPIO" style="text;html=1;align=center;verticalAlign=middle;whiteSpace=wrap;rounded=0;" vertex="1" parent="1">
          <mxGeometry x="945" y="260" width="60" height="30" as="geometry" />
        </mxCell>
        <mxCell id="LJEUfoLFm-hJULReYEJR-79" value="inputs" style="text;html=1;align=center;verticalAlign=middle;whiteSpace=wrap;rounded=0;" vertex="1" parent="1">
          <mxGeometry x="945" y="280" width="60" height="30" as="geometry" />
        </mxCell>
        <mxCell id="LJEUfoLFm-hJULReYEJR-80" value="UART" style="text;html=1;align=center;verticalAlign=middle;whiteSpace=wrap;rounded=0;" vertex="1" parent="1">
          <mxGeometry x="780" y="250" width="60" height="30" as="geometry" />
        </mxCell>
        <mxCell id="LJEUfoLFm-hJULReYEJR-81" value="&lt;div&gt;LCD Display&lt;/div&gt;&lt;div&gt;16 x 02&lt;/div&gt;" style="rounded=1;whiteSpace=wrap;html=1;" vertex="1" parent="1">
          <mxGeometry x="850" y="375" width="80" height="40" as="geometry" />
        </mxCell>
        <mxCell id="LJEUfoLFm-hJULReYEJR-82" value="" style="endArrow=classic;html=1;rounded=0;entryX=0.5;entryY=0;entryDx=0;entryDy=0;exitX=0.5;exitY=1;exitDx=0;exitDy=0;" edge="1" parent="1" source="LJEUfoLFm-hJULReYEJR-63" target="LJEUfoLFm-hJULReYEJR-81">
          <mxGeometry width="50" height="50" relative="1" as="geometry">
            <mxPoint x="765" y="340" as="sourcePoint" />
            <mxPoint x="815" y="290" as="targetPoint" />
          </mxGeometry>
        </mxCell>
        <mxCell id="LJEUfoLFm-hJULReYEJR-83" value="I²C" style="text;html=1;align=center;verticalAlign=middle;whiteSpace=wrap;rounded=0;" vertex="1" parent="1">
          <mxGeometry x="875" y="340" width="60" height="30" as="geometry" />
        </mxCell>
        <mxCell id="LJEUfoLFm-hJULReYEJR-84" value="" style="rounded=0;whiteSpace=wrap;html=1;fillColor=none;strokeColor=#FF8000;dashed=1;dashPattern=8 8;strokeWidth=2;" vertex="1" parent="1">
          <mxGeometry x="680" y="45" width="415" height="385" as="geometry" />
        </mxCell>
        <mxCell id="LJEUfoLFm-hJULReYEJR-86" value="&lt;font style=&quot;color: rgb(255, 128, 0);&quot;&gt;PCB CONTROLLER&lt;/font&gt;" style="text;html=1;align=center;verticalAlign=middle;whiteSpace=wrap;rounded=0;" vertex="1" parent="1">
          <mxGeometry x="970" y="405" width="125" height="30" as="geometry" />
        </mxCell>
      </root>
    </mxGraphModel>
  </diagram>
</mxfile>
